{
  "accessors": [
    {
      "bufferView": 2,
      "componentType": 5126,
      "count": 2118,
      "max": [
        20.391319274902344,
        20.391319274902344,
        40.39132308959961
      ],
      "min": [
        -21.864702224731445,
        -20.391319274902344,
        -1.8646986484527588
      ],
      "type": "VEC3"
    },
    {
      "bufferView": 2,
      "byteOffset": 25416,
      "componentType": 5126,
      "count": 2118,
      "max": [
        0.9999241828918457,
        0.9992550611495972,
        0.9999242424964905
      ],
      "min": [
        -1.0,
        -0.9992550611495972,
        -1.0
      ],
      "type": "VEC3"
    },
    {
      "bufferView": 1,
      "componentType": 5126,
      "count": 2118,
      "max": [
        1.0,
        1.0
      ],
      "min": [
        0.0,
        0.0
      ],
      "type": "VEC2"
    },
    {
      "bufferView": 0,
      "componentType": 5125,
      "count": 11520,
      "type": "SCALAR"
    },
    {
      "bufferView": 2,
      "byteOffset": 50832,
      "componentType": 5126,
      "count": 2118,
      "max": [
        20.391321182250977,
        20.391321182250977,
        41.86469650268555
      ],
      "min": [
        -20.391319274902344,
        -20.391321182250977,
        -0.39132189750671387
      ],
      "type": "VEC3"
    },
    {
      "bufferView": 2,
      "byteOffset": 76248,
      "componentType": 5126,
      "count": 2118,
      "max": [
        0.9999241828918457,
        0.9992550611495972,
        1.0
      ],
      "min": [
        -0.9999241828918457,
        -0.9992550611495972,
        -0.9992550015449524
      ],
      "type": "VEC3"
    },
    {
      "bufferView": 1,
      "byteOffset": 16944,
      "componentType": 5126,
      "count": 2118,
      "max": [
        1.0,
        1.0
      ],
      "min": [
        -5.960464477539063e-08,
        0.0
      ],
      "type": "VEC2"
    },
    {
      "bufferView": 0,
      "byteOffset": 46080,
      "componentType": 5125,
      "count": 11520,
      "type": "SCALAR"
    },
    {
      "bufferView": 2,
      "byteOffset": 101664,
      "componentType": 5126,
      "count": 2118,
      "max": [
        21.864702224731445,
        21.864702224731445,
        40.391326904296875
      ],
      "min": [
        -20.391321182250977,
        -21.864702224731445,
        -0.3913208246231079
      ],
      "type": "VEC3"
    },
    {
      "bufferView": 2,
      "byteOffset": 127080,
      "componentType": 5126,
      "count": 2118,
      "max": [
        1.0,
        1.0,
        0.9999242424964905
      ],
      "min": [
        -0.9999241828918457,
        -1.0,
        -0.9999242424964905
      ],
      "type": "VEC3"
    },
    {
      "bufferView": 1,
      "byteOffset": 33888,
      "componentType": 5126,
      "count": 2118,
      "max": [
        1.0,
        1.0
      ],
      "min": [
        0.0,
        0.0
      ],
      "type": "VEC2"
    },
    {
      "bufferView": 0,
      "byteOffset": 92160,
      "componentType": 5125,
      "count": 11520,
      "type": "SCALAR"
    }
  ],
  "asset": {
    "extras": {
      "author": "Evangelista.Junior (https://sketchfab.com/Evangelista.Junior)",
      "license": "CC-BY-4.0 (http://creativecommons.org/licenses/by/4.0/)",
      "source": "https://sketchfab.com/3d-models/voleyball-ball-bc10ff32ac7343b8b0b5d71cece675cb",
      "title": "Voleyball Ball"
    },
    "generator": "Sketchfab-12.66.0",
    "version": "2.0"
  },
  "bufferViews": [
    {
      "buffer": 0,
      "byteLength": 138240,
      "name": "floatBufferViews",
      "target": 34963
    },
    {
      "buffer": 0,
      "byteLength": 50832,
      "byteOffset": 138240,
      "byteStride": 8,
      "name": "floatBufferViews",
      "target": 34962
    },
    {
      "buffer": 0,
      "byteLength": 152496,
      "byteOffset": 189072,
      "byteStride": 12,
      "name": "floatBufferViews",
      "target": 34962
    }
  ],
  "buffers": [
    {
      "byteLength": 341568,
      "uri": "scene.bin"
    }
  ],
  "extensionsRequired": [
    "KHR_materials_pbrSpecularGlossiness"
  ],
  "extensionsUsed": [
    "KHR_materials_pbrSpecularGlossiness"
  ],
  "materials": [
    {
      "doubleSided": true,
      "extensions": {
        "KHR_materials_pbrSpecularGlossiness": {
          "diffuseFactor": [
            1.0,
            0.8,
            0.0,
            1.0
          ],
          "glossinessFactor": 0.1070286404,
          "specularFactor": [
            0.0,
            0.0,
            0.0
          ]
        }
      },
      "name": "02_-_Default"
    },
    {
      "doubleSided": true,
      "extensions": {
        "KHR_materials_pbrSpecularGlossiness": {
          "diffuseFactor": [
            0.03458173589892296,
            0.0,
            0.7387911568557739,
            1.0
          ],
          "glossinessFactor": 0.1070286404,
          "specularFactor": [
            0.40772728197502367,
            0.40772728197502367,
            0.40772728197502367
          ]
        }
      },
      "name": "01_-_Default"
    },
    {
      "doubleSided": true,
      "extensions": {
        "KHR_materials_pbrSpecularGlossiness": {
          "diffuseFactor": [
            1.0,
            1.0,
            1.0,
            1.0
          ],
          "glossinessFactor": 0.1070286404,
          "specularFactor": [
            0.0,
            0.0,
            0.0
          ]
        }
      },
      "name": "03_-_Default"
    }
  ],
  "meshes": [
    {
      "name": "Object009_02 - Default_0",
      "primitives": [
        {
          "attributes": {
            "NORMAL": 1,
            "POSITION": 0,
            "TEXCOORD_0": 2
          },
          "indices": 3,
          "material": 0,
          "mode": 4
        }
      ]
    },
    {
      "name": "Object009_01 - Default_0",
      "primitives": [
        {
          "attributes": {
            "NORMAL": 5,
            "POSITION": 4,
            "TEXCOORD_0": 6
          },
          "indices": 7,
          "material": 1,
          "mode": 4
        }
      ]
    },
    {
      "name": "Object009_03 - Default_0",
      "primitives": [
        {
          "attributes": {
            "NORMAL": 9,
            "POSITION": 8,
            "TEXCOORD_0": 10
          },
          "indices": 11,
          "material": 2,
          "mode": 4
        }
      ]
    }
  ],
  "nodes": [
    {
      "children": [
        1
      ],
      "matrix": [
        1.0,
        0.0,
        0.0,
        0.0,
        0.0,
        2.220446049250313e-16,
        -1.0,
        0.0,
        0.0,
        1.0,
        2.220446049250313e-16,
        0.0,
        0.0,
        0.0,
        0.0,
        1.0
      ],
      "name": "Sketchfab_model"
    },
    {
      "children": [
        2
      ],
      "matrix": [
        1.0,
        0.0,
        0.0,
        0.0,
        0.0,
        0.0,
        1.0,
        0.0,
        0.0,
        -1.0,
        0.0,
        0.0,
        0.0,
        0.0,
        0.0,
        1.0
      ],
      "name": "8c3621d14b104639868d0c3c89260660.fbx"
    },
    {
      "children": [
        3
      ],
      "name": "RootNode"
    },
    {
      "children": [
        4,
        5,
        6
      ],
      "matrix": [
        1.0,
        0.0,
        0.0,
        0.0,
        0.0,
        2.220446049250313e-16,
        -1.0,
        0.0,
        0.0,
        1.0,
        2.220446049250313e-16,
        0.0,
        10.379932403564453,
        0.0,
        -1.2486896514892578,
        1.0
      ],
      "name": "Object009"
    },
    {
      "mesh": 0,
      "name": "Object009_02 - Default_0"
    },
    {
      "mesh": 1,
      "name": "Object009_01 - Default_0"
    },
    {
      "mesh": 2,
      "name": "Object009_03 - Default_0"
    }
  ],
  "scene": 0,
  "scenes": [
    {
      "name": "Sketchfab_Scene",
      "nodes": [
        0
      ]
    }
  ]
}
