{
  "accessors": [
    {
      "bufferView": 2,
      "componentType": 5126,
      "count": 27874,
      "max": [
        123.49569702148438,
        224.44439697265625,
        43.4453010559082
      ],
      "min": [
        -434.2308044433594,
        -281.33929443359375,
        -12.335000038146973
      ],
      "type": "VEC3"
    },
    {
      "bufferView": 2,
      "byteOffset": 334488,
      "componentType": 5126,
      "count": 27874,
      "max": [
        0.9999868869781494,
        0.999863862991333,
        1.0
      ],
      "min": [
        -0.9999868869781494,
        -0.9981212615966797,
        -1.0
      ],
      "type": "VEC3"
    },
    {
      "bufferView": 1,
      "componentType": 5126,
      "count": 27874,
      "max": [
        1.0499999523162842,
        1.0
      ],
      "min": [
        0.0,
        0.0
      ],
      "type": "VEC2"
    },
    {
      "bufferView": 0,
      "componentType": 5125,
      "count": 163080,
      "type": "SCALAR"
    },
    {
      "bufferView": 2,
      "byteOffset": 668976,
      "componentType": 5126,
      "count": 240,
      "max": [
        81.54340362548828,
        -66.1155014038086,
        15.525400161743164
      ],
      "min": [
        -392.2784118652344,
        -142.74639892578125,
        -0.5514000058174133
      ],
      "type": "VEC3"
    },
    {
      "bufferView": 2,
      "byteOffset": 671856,
      "componentType": 5126,
      "count": 240,
      "max": [
        0.9999102354049683,
        0.9996567368507385,
        0.08479505777359009
      ],
      "min": [
        -0.9999102354049683,
        -0.9965928196907043,
        0.0
      ],
      "type": "VEC3"
    },
    {
      "bufferView": 1,
      "byteOffset": 222992,
      "componentType": 5126,
      "count": 240,
      "max": [
        0.7674999833106995,
        0.767799973487854
      ],
      "min": [
        0.23250000178813934,
        0.2321999967098236
      ],
      "type": "VEC2"
    },
    {
      "bufferView": 0,
      "byteOffset": 652320,
      "componentType": 5125,
      "count": 960,
      "type": "SCALAR"
    }
  ],
  "asset": {
    "extras": {
      "author": "lorranmedeiros (https://sketchfab.com/lorranmedeiros)",
      "license": "CC-BY-4.0 (http://creativecommons.org/licenses/by/4.0/)",
      "source": "https://sketchfab.com/3d-models/slipper-3b6df4dcefb147acb57a1dfb3ccf9f98",
      "title": "Slipper"
    },
    "generator": "Sketchfab-15.10.0",
    "version": "2.0"
  },
  "bufferViews": [
    {
      "buffer": 0,
      "byteLength": 656160,
      "name": "floatBufferViews",
      "target": 34963
    },
    {
      "buffer": 0,
      "byteLength": 224912,
      "byteOffset": 656160,
      "byteStride": 8,
      "name": "floatBufferViews",
      "target": 34962
    },
    {
      "buffer": 0,
      "byteLength": 674736,
      "byteOffset": 881072,
      "byteStride": 12,
      "name": "floatBufferViews",
      "target": 34962
    }
  ],
  "buffers": [
    {
      "byteLength": 1555808,
      "uri": "scene.bin"
    }
  ],
  "extensionsUsed": [
    "KHR_materials_specular"
  ],
  "materials": [
    {
      "doubleSided": true,
      "extensions": {
        "KHR_materials_specular": {
          "specularColorFactor": [
            1.0,
            1.0,
            1.0
          ],
          "specularFactor": 0.5043824895466348
        }
      },
      "name": "wire_086086086",
      "pbrMetallicRoughness": {
        "baseColorFactor": [
          0.34174559239471186,
          0.0,
          1.0,
          1.0
        ],
        "metallicFactor": 0.9188599431922078,
        "roughnessFactor": 0.6479989272348259
      }
    }
  ],
  "meshes": [
    {
      "name": "Object_0",
      "primitives": [
        {
          "attributes": {
            "NORMAL": 1,
            "POSITION": 0,
            "TEXCOORD_0": 2
          },
          "indices": 3,
          "material": 0,
          "mode": 4
        }
      ]
    },
    {
      "name": "Object_1",
      "primitives": [
        {
          "attributes": {
            "NORMAL": 5,
            "POSITION": 4,
            "TEXCOORD_0": 6
          },
          "indices": 7,
          "material": 0,
          "mode": 4
        }
      ]
    }
  ],
  "nodes": [
    {
      "children": [
        1
      ],
      "matrix": [
        1.0,
        1.6081226229577284e-16,
        2.8327693431939995e-16,
        0.0,
        2.832769343193999e-16,
        3.828568672208042e-16,
        -1.0,
        0.0,
        -1.6081226229577292e-16,
        1.0,
        3.828568672208042e-16,
        0.0,
        0.0,
        0.0,
        0.0,
        1.0
      ],
      "name": "Sketchfab_model"
    },
    {
      "children": [
        2,
        3
      ],
      "name": "Sandalia.obj.cleaner.materialmerger.gles"
    },
    {
      "mesh": 0,
      "name": "Object_2"
    },
    {
      "mesh": 1,
      "name": "Object_3"
    }
  ],
  "scene": 0,
  "scenes": [
    {
      "name": "Sketchfab_Scene",
      "nodes": [
        0
      ]
    }
  ]
}
