{
  "accessors": [
    {
      "bufferView": 2,
      "componentType": 5126,
      "count": 65532,
      "max": [
        1.4298299551010132,
        0.9120500087738037,
        1.375789999961853
      ],
      "min": [
        -1.3037899732589722,
        -0.7672399878501892,
        -0.012299999594688416
      ],
      "type": "VEC3"
    },
    {
      "bufferView": 2,
      "byteOffset": 786384,
      "componentType": 5126,
      "count": 65532,
      "max": [
        0.9999920725822449,
        0.9999977946281433,
        0.9999997615814209
      ],
      "min": [
        -0.9999918341636658,
        -0.9999985098838806,
        -0.9998272061347961
      ],
      "type": "VEC3"
    },
    {
      "bufferView": 1,
      "componentType": 5126,
      "count": 65532,
      "max": [
        0.9979249835014343,
        0.9958419799804688
      ],
      "min": [
        0.002085000043734908,
        0.33305999636650085
      ],
      "type": "VEC2"
    },
    {
      "bufferView": 0,
      "componentType": 5125,
      "count": 312042,
      "type": "SCALAR"
    },
    {
      "bufferView": 2,
      "byteOffset": 1572768,
      "componentType": 5126,
      "count": 65532,
      "max": [
        1.4298299551010132,
        0.9120500087738037,
        1.3419100046157837
      ],
      "min": [
        -1.3037899732589722,
        -0.7672399878501892,
        -0.006539999973028898
      ],
      "type": "VEC3"
    },
    {
      "bufferView": 2,
      "byteOffset": 2359152,
      "componentType": 5126,
      "count": 65532,
      "max": [
        0.9998875260353088,
        0.9999985694885254,
        0.9999998211860657
      ],
      "min": [
        -1.0,
        -0.9999968409538269,
        -0.9998272061347961
      ],
      "type": "VEC3"
    },
    {
      "bufferView": 1,
      "byteOffset": 524256,
      "componentType": 5126,
      "count": 65532,
      "max": [
        0.9976919889450073,
        0.9958369731903076
      ],
      "min": [
        0.0020979999098926783,
        0.3616099953651428
      ],
      "type": "VEC2"
    },
    {
      "bufferView": 0,
      "byteOffset": 1248168,
      "componentType": 5125,
      "count": 344604,
      "type": "SCALAR"
    },
    {
      "bufferView": 2,
      "byteOffset": 3145536,
      "componentType": 5126,
      "count": 37535,
      "max": [
        1.4298299551010132,
        0.9120500087738037,
        1.375789999961853
      ],
      "min": [
        -1.2179700136184692,
        -0.7672399878501892,
        -0.00506999995559454
      ],
      "type": "VEC3"
    },
    {
      "bufferView": 2,
      "byteOffset": 3595956,
      "componentType": 5126,
      "count": 37535,
      "max": [
        0.9999825954437256,
        0.9999848008155823,
        0.9999957084655762
      ],
      "min": [
        -0.9999809861183167,
        -0.9999966621398926,
        -0.9998175501823425
      ],
      "type": "VEC3"
    },
    {
      "bufferView": 1,
      "byteOffset": 1048512,
      "componentType": 5126,
      "count": 37535,
      "max": [
        0.9976059794425964,
        0.9095020294189453
      ],
      "min": [
        0.04122500121593475,
        0.4812690019607544
      ],
      "type": "VEC2"
    },
    {
      "bufferView": 0,
      "byteOffset": 2626584,
      "componentType": 5125,
      "count": 182820,
      "type": "SCALAR"
    }
  ],
  "asset": {
    "extras": {
      "author": "rwolzinger (https://sketchfab.com/rwolzinger)",
      "license": "CC-BY-NC-SA-4.0 (http://creativecommons.org/licenses/by-nc-sa/4.0/)",
      "source": "https://sketchfab.com/3d-models/lifeguard-atv-huntington-beach-8d03132f88a54edbaac94ec7a711ed01",
      "title": "Lifeguard ATV Huntington Beach"
    },
    "generator": "Sketchfab-13.15.0",
    "version": "2.0"
  },
  "bufferViews": [
    {
      "buffer": 0,
      "byteLength": 3357864,
      "name": "floatBufferViews",
      "target": 34963
    },
    {
      "buffer": 0,
      "byteLength": 1348792,
      "byteOffset": 3357864,
      "byteStride": 8,
      "name": "floatBufferViews",
      "target": 34962
    },
    {
      "buffer": 0,
      "byteLength": 4046376,
      "byteOffset": 4706656,
      "byteStride": 12,
      "name": "floatBufferViews",
      "target": 34962
    }
  ],
  "buffers": [
    {
      "byteLength": 8753032,
      "uri": "scene.bin"
    }
  ],
  "extensionsUsed": [
    "KHR_materials_unlit"
  ],
  "images": [
    {
      "uri": "textures/main_baseColor.jpeg"
    }
  ],
  "materials": [
    {
      "doubleSided": true,
      "extensions": {
        "KHR_materials_unlit": {}
      },
      "name": "main",
      "pbrMetallicRoughness": {
        "baseColorTexture": {
          "index": 0
        },
        "metallicFactor": 0.0
      }
    }
  ],
  "meshes": [
    {
      "name": "Object_0",
      "primitives": [
        {
          "attributes": {
            "NORMAL": 1,
            "POSITION": 0,
            "TEXCOORD_0": 2
          },
          "indices": 3,
          "material": 0,
          "mode": 4
        }
      ]
    },
    {
      "name": "Object_1",
      "primitives": [
        {
          "attributes": {
            "NORMAL": 5,
            "POSITION": 4,
            "TEXCOORD_0": 6
          },
          "indices": 7,
          "material": 0,
          "mode": 4
        }
      ]
    },
    {
      "name": "Object_2",
      "primitives": [
        {
          "attributes": {
            "NORMAL": 9,
            "POSITION": 8,
            "TEXCOORD_0": 10
          },
          "indices": 11,
          "material": 0,
          "mode": 4
        }
      ]
    }
  ],
  "nodes": [
    {
      "children": [
        1
      ],
      "matrix": [
        1.0,
        0.0,
        0.0,
        0.0,
        0.0,
        2.220446049250313e-16,
        -1.0,
        0.0,
        0.0,
        1.0,
        2.220446049250313e-16,
        0.0,
        0.0,
        0.0,
        0.0,
        1.0
      ],
      "name": "Sketchfab_model"
    },
    {
      "children": [
        2,
        3,
        4
      ],
      "name": "Scaniverse.obj.cleaner.materialmerger.gles"
    },
    {
      "mesh": 0,
      "name": "Object_2"
    },
    {
      "mesh": 1,
      "name": "Object_3"
    },
    {
      "mesh": 2,
      "name": "Object_4"
    }
  ],
  "samplers": [
    {
      "magFilter": 9729,
      "minFilter": 9987,
      "wrapS": 10497,
      "wrapT": 10497
    }
  ],
  "scene": 0,
  "scenes": [
    {
      "name": "Sketchfab_Scene",
      "nodes": [
        0
      ]
    }
  ],
  "textures": [
    {
      "sampler": 0,
      "source": 0
    }
  ]
}
