{
  "accessors": [
    {
      "bufferView": 2,
      "componentType": 5126,
      "count": 415,
      "max": [
        177.92123413085938,
        418.1477966308594,
        217.95828247070313
      ],
      "min": [
        -194.52719116210938,
        15.183099746704102,
        -40.530330657958984
      ],
      "type": "VEC3"
    },
    {
      "bufferView": 2,
      "byteOffset": 4980,
      "componentType": 5126,
      "count": 415,
      "max": [
        1.0,
        1.0,
        1.0
      ],
      "min": [
        -1.0,
        -1.0,
        -1.0
      ],
      "type": "VEC3"
    },
    {
      "bufferView": 3,
      "componentType": 5126,
      "count": 415,
      "max": [
        1.0,
        1.0,
        1.0,
        1.0
      ],
      "min": [
        -1.0,
        -1.0,
        -1.0,
        -1.0
      ],
      "type": "VEC4"
    },
    {
      "bufferView": 1,
      "componentType": 5126,
      "count": 415,
      "max": [
        0.9975000023841858,
        0.9902964234352112
      ],
      "min": [
        0.0024999999441206455,
        0.002499997615814209
      ],
      "type": "VEC2"
    },
    {
      "bufferView": 1,
      "byteOffset": 3320,
      "componentType": 5126,
      "count": 415,
      "max": [
        1.0,
        1.0
      ],
      "min": [
        1.0,
        1.0
      ],
      "type": "VEC2"
    },
    {
      "bufferView": 0,
      "componentType": 5125,
      "count": 909,
      "type": "SCALAR"
    },
    {
      "bufferView": 2,
      "byteOffset": 9960,
      "componentType": 5126,
      "count": 874,
      "max": [
        119.45977020263672,
        361.6640319824219,
        201.34226989746094
      ],
      "min": [
        -194.26150512695313,
        53.29126739501953,
        -192.5220947265625
      ],
      "type": "VEC3"
    },
    {
      "bufferView": 2,
      "byteOffset": 20448,
      "componentType": 5126,
      "count": 874,
      "max": [
        1.0,
        1.0,
        1.0
      ],
      "min": [
        -1.0,
        -1.0,
        -1.0
      ],
      "type": "VEC3"
    },
    {
      "bufferView": 3,
      "byteOffset": 6640,
      "componentType": 5126,
      "count": 874,
      "max": [
        1.0,
        1.0,
        1.0,
        1.0
      ],
      "min": [
        -1.0,
        -1.0,
        -1.0,
        1.0
      ],
      "type": "VEC4"
    },
    {
      "bufferView": 1,
      "byteOffset": 6640,
      "componentType": 5126,
      "count": 874,
      "max": [
        0.9907210469245911,
        0.9969444274902344
      ],
      "min": [
        0.0024999999441206455,
        0.002499997615814209
      ],
      "type": "VEC2"
    },
    {
      "bufferView": 1,
      "byteOffset": 13632,
      "componentType": 5126,
      "count": 874,
      "max": [
        1.0,
        1.0
      ],
      "min": [
        1.0,
        1.0
      ],
      "type": "VEC2"
    },
    {
      "bufferView": 0,
      "byteOffset": 3636,
      "componentType": 5125,
      "count": 2253,
      "type": "SCALAR"
    },
    {
      "bufferView": 2,
      "byteOffset": 30936,
      "componentType": 5126,
      "count": 457,
      "max": [
        243.6118621826172,
        360.8388977050781,
        -34.990638732910156
      ],
      "min": [
        -284.71063232421875,
        -549.5455932617188,
        -218.75526428222656
      ],
      "type": "VEC3"
    },
    {
      "bufferView": 2,
      "byteOffset": 36420,
      "componentType": 5126,
      "count": 457,
      "max": [
        1.0,
        1.0,
        1.0
      ],
      "min": [
        -1.0,
        -1.0,
        -1.0
      ],
      "type": "VEC3"
    },
    {
      "bufferView": 3,
      "byteOffset": 20624,
      "componentType": 5126,
      "count": 457,
      "max": [
        1.0,
        1.0,
        1.0,
        1.0
      ],
      "min": [
        -1.0,
        -1.0,
        -1.0,
        1.0
      ],
      "type": "VEC4"
    },
    {
      "bufferView": 1,
      "byteOffset": 20624,
      "componentType": 5126,
      "count": 457,
      "max": [
        0.9975000023841858,
        0.9975000023841858
      ],
      "min": [
        0.0024999999441206455,
        0.002499997615814209
      ],
      "type": "VEC2"
    },
    {
      "bufferView": 1,
      "byteOffset": 24280,
      "componentType": 5126,
      "count": 457,
      "max": [
        1.0,
        1.0
      ],
      "min": [
        1.0,
        1.0
      ],
      "type": "VEC2"
    },
    {
      "bufferView": 0,
      "byteOffset": 12648,
      "componentType": 5125,
      "count": 774,
      "type": "SCALAR"
    },
    {
      "bufferView": 2,
      "byteOffset": 41904,
      "componentType": 5126,
      "count": 41503,
      "max": [
        188.3607635498047,
        373.7238464355469,
        411.71856689453125
      ],
      "min": [
        -156.99884033203125,
        7.307097434997559,
        -41.03395462036133
      ],
      "type": "VEC3"
    },
    {
      "bufferView": 2,
      "byteOffset": 539940,
      "componentType": 5126,
      "count": 41503,
      "max": [
        1.0,
        1.0,
        1.0
      ],
      "min": [
        -1.0,
        -1.0,
        -1.0
      ],
      "type": "VEC3"
    },
    {
      "bufferView": 3,
      "byteOffset": 27936,
      "componentType": 5126,
      "count": 41503,
      "max": [
        1.0,
        1.0,
        1.0,
        1.0
      ],
      "min": [
        -1.0,
        -1.0,
        -1.0,
        1.0
      ],
      "type": "VEC4"
    },
    {
      "bufferView": 1,
      "byteOffset": 27936,
      "componentType": 5126,
      "count": 41503,
      "max": [
        0.9953430891036987,
        0.9975000023841858
      ],
      "min": [
        0.0024999999441206455,
        0.002499997615814209
      ],
      "type": "VEC2"
    },
    {
      "bufferView": 1,
      "byteOffset": 359960,
      "componentType": 5126,
      "count": 41503,
      "max": [
        1.0,
        1.0
      ],
      "min": [
        1.0,
        1.0
      ],
      "type": "VEC2"
    },
    {
      "bufferView": 0,
      "byteOffset": 15744,
      "componentType": 5125,
      "count": 152238,
      "type": "SCALAR"
    },
    {
      "bufferView": 2,
      "byteOffset": 1037976,
      "componentType": 5126,
      "count": 4757,
      "max": [
        250.0927276611328,
        418.1477966308594,
        366.8980712890625
      ],
      "min": [
        -290.1943359375,
        -554.3109130859375,
        -210.47740173339844
      ],
      "type": "VEC3"
    },
    {
      "bufferView": 2,
      "byteOffset": 1095060,
      "componentType": 5126,
      "count": 4757,
      "max": [
        1.0,
        1.0,
        1.0
      ],
      "min": [
        -1.0,
        -1.0,
        -1.0
      ],
      "type": "VEC3"
    },
    {
      "bufferView": 3,
      "byteOffset": 691984,
      "componentType": 5126,
      "count": 4757,
      "max": [
        1.0,
        1.0,
        1.0,
        1.0
      ],
      "min": [
        -1.0,
        -1.0,
        -1.0,
        1.0
      ],
      "type": "VEC4"
    },
    {
      "bufferView": 1,
      "byteOffset": 691984,
      "componentType": 5126,
      "count": 4757,
      "max": [
        0.9944525361061096,
        0.9975000023841858
      ],
      "min": [
        0.0024999999441206455,
        0.002499997615814209
      ],
      "type": "VEC2"
    },
    {
      "bufferView": 1,
      "byteOffset": 730040,
      "componentType": 5126,
      "count": 4757,
      "max": [
        1.0,
        1.0
      ],
      "min": [
        1.0,
        1.0
      ],
      "type": "VEC2"
    },
    {
      "bufferView": 0,
      "byteOffset": 624696,
      "componentType": 5125,
      "count": 8064,
      "type": "SCALAR"
    },
    {
      "bufferView": 2,
      "byteOffset": 1152144,
      "componentType": 5126,
      "count": 308,
      "max": [
        221.54710388183594,
        415.15966796875,
        220.0083465576172
      ],
      "min": [
        -257.29254150390625,
        -45.73096466064453,
        134.16091918945313
      ],
      "type": "VEC3"
    },
    {
      "bufferView": 2,
      "byteOffset": 1155840,
      "componentType": 5126,
      "count": 308,
      "max": [
        1.0,
        1.0,
        1.0
      ],
      "min": [
        -1.0,
        -1.0,
        -1.0
      ],
      "type": "VEC3"
    },
    {
      "bufferView": 3,
      "byteOffset": 768096,
      "componentType": 5126,
      "count": 308,
      "max": [
        1.0,
        1.0,
        1.0,
        1.0
      ],
      "min": [
        -1.0,
        -1.0,
        -1.0,
        1.0
      ],
      "type": "VEC4"
    },
    {
      "bufferView": 1,
      "byteOffset": 768096,
      "componentType": 5126,
      "count": 308,
      "max": [
        0.9960651993751526,
        0.9975000023841858
      ],
      "min": [
        0.0024999999441206455,
        0.002499997615814209
      ],
      "type": "VEC2"
    },
    {
      "bufferView": 1,
      "byteOffset": 770560,
      "componentType": 5126,
      "count": 308,
      "max": [
        1.0,
        1.0
      ],
      "min": [
        1.0,
        1.0
      ],
      "type": "VEC2"
    },
    {
      "bufferView": 0,
      "byteOffset": 656952,
      "componentType": 5125,
      "count": 468,
      "type": "SCALAR"
    },
    {
      "bufferView": 2,
      "byteOffset": 1159536,
      "componentType": 5126,
      "count": 1180,
      "max": [
        181.6468505859375,
        476.79486083984375,
        363.4424743652344
      ],
      "min": [
        181.4418182373047,
        368.6439514160156,
        222.58859252929688
      ],
      "type": "VEC3"
    },
    {
      "bufferView": 2,
      "byteOffset": 1173696,
      "componentType": 5126,
      "count": 1180,
      "max": [
        1.0,
        0.9409008622169495,
        0.9876920580863953
      ],
      "min": [
        -1.0,
        -1.0,
        -0.9616803526878357
      ],
      "type": "VEC3"
    },
    {
      "bufferView": 3,
      "byteOffset": 773024,
      "componentType": 5126,
      "count": 1180,
      "max": [
        1.0,
        0.6602374911308289,
        0.9735891222953796,
        1.0
      ],
      "min": [
        -1.0,
        -0.9876919984817505,
        -1.0,
        -1.0
      ],
      "type": "VEC4"
    },
    {
      "bufferView": 1,
      "byteOffset": 773024,
      "componentType": 5126,
      "count": 1180,
      "max": [
        0.999500036239624,
        0.9974377155303955
      ],
      "min": [
        0.0005000000237487257,
        -0.00039970874786376953
      ],
      "type": "VEC2"
    },
    {
      "bufferView": 1,
      "byteOffset": 782464,
      "componentType": 5126,
      "count": 1180,
      "max": [
        1.0,
        1.0
      ],
      "min": [
        1.0,
        1.0
      ],
      "type": "VEC2"
    },
    {
      "bufferView": 0,
      "byteOffset": 658824,
      "componentType": 5125,
      "count": 5940,
      "type": "SCALAR"
    }
  ],
  "asset": {
    "extras": {
      "author": "Zeneric (https://sketchfab.com/zeneric9)",
      "license": "CC-BY-4.0 (http://creativecommons.org/licenses/by/4.0/)",
      "source": "https://sketchfab.com/3d-models/lifeguard-post-lals-5014986c858c45c8a5e1a504cf38ea9b",
      "title": "Lifeguard Post LA/LS"
    },
    "generator": "Sketchfab-14.41.0",
    "version": "2.0"
  },
  "bufferViews": [
    {
      "buffer": 0,
      "byteLength": 682584,
      "name": "floatBufferViews",
      "target": 34963
    },
    {
      "buffer": 0,
      "byteLength": 791904,
      "byteOffset": 682584,
      "byteStride": 8,
      "name": "floatBufferViews",
      "target": 34962
    },
    {
      "buffer": 0,
      "byteLength": 1187856,
      "byteOffset": 1474488,
      "byteStride": 12,
      "name": "floatBufferViews",
      "target": 34962
    },
    {
      "buffer": 0,
      "byteLength": 791904,
      "byteOffset": 2662344,
      "byteStride": 16,
      "name": "floatBufferViews",
      "target": 34962
    }
  ],
  "buffers": [
    {
      "byteLength": 3454248,
      "uri": "scene.bin"
    }
  ],
  "images": [
    {
      "uri": "textures/Material_135_baseColor.png"
    },
    {
      "uri": "textures/Material_135_metallicRoughness.png"
    },
    {
      "uri": "textures/Material_135_normal.png"
    },
    {
      "uri": "textures/Material_131_baseColor.png"
    },
    {
      "uri": "textures/Material_131_metallicRoughness.png"
    },
    {
      "uri": "textures/Material_131_normal.png"
    },
    {
      "uri": "textures/Material_134_baseColor.png"
    },
    {
      "uri": "textures/Material_134_metallicRoughness.png"
    },
    {
      "uri": "textures/Material_134_normal.png"
    },
    {
      "uri": "textures/Material_133_baseColor.png"
    },
    {
      "uri": "textures/Material_133_metallicRoughness.png"
    },
    {
      "uri": "textures/Material_133_normal.png"
    },
    {
      "uri": "textures/Material_124_baseColor.png"
    },
    {
      "uri": "textures/Material_124_metallicRoughness.png"
    },
    {
      "uri": "textures/Material_124_normal.png"
    },
    {
      "uri": "textures/Material_136_baseColor.png"
    },
    {
      "uri": "textures/Material_136_metallicRoughness.png"
    },
    {
      "uri": "textures/Material_136_normal.png"
    },
    {
      "uri": "textures/Material_137_baseColor.png"
    },
    {
      "uri": "textures/Material_137_metallicRoughness.png"
    },
    {
      "uri": "textures/Material_137_normal.png"
    }
  ],
  "materials": [
    {
      "doubleSided": true,
      "name": "Material_135",
      "normalTexture": {
        "index": 2,
        "scale": 0.1630481159561629
      },
      "occlusionTexture": {
        "index": 1
      },
      "pbrMetallicRoughness": {
        "baseColorTexture": {
          "index": 0
        },
        "metallicRoughnessTexture": {
          "index": 1
        }
      }
    },
    {
      "doubleSided": true,
      "name": "Material_131",
      "normalTexture": {
        "index": 5,
        "scale": 0.21790542599748874
      },
      "occlusionTexture": {
        "index": 4
      },
      "pbrMetallicRoughness": {
        "baseColorTexture": {
          "index": 3
        },
        "metallicRoughnessTexture": {
          "index": 4
        }
      }
    },
    {
      "doubleSided": true,
      "name": "Material_134",
      "normalTexture": {
        "index": 8,
        "scale": 0.1569528592849045
      },
      "occlusionTexture": {
        "index": 7
      },
      "pbrMetallicRoughness": {
        "baseColorTexture": {
          "index": 6
        },
        "metallicRoughnessTexture": {
          "index": 7
        }
      }
    },
    {
      "doubleSided": true,
      "name": "Material_133",
      "normalTexture": {
        "index": 11
      },
      "occlusionTexture": {
        "index": 10
      },
      "pbrMetallicRoughness": {
        "baseColorTexture": {
          "index": 9
        },
        "metallicRoughnessTexture": {
          "index": 10
        }
      }
    },
    {
      "doubleSided": true,
      "name": "Material_124",
      "normalTexture": {
        "index": 14,
        "scale": 0.1630481159561629
      },
      "occlusionTexture": {
        "index": 13
      },
      "pbrMetallicRoughness": {
        "baseColorTexture": {
          "index": 12
        },
        "metallicRoughnessTexture": {
          "index": 13
        }
      }
    },
    {
      "doubleSided": true,
      "name": "Material_136",
      "normalTexture": {
        "index": 17
      },
      "occlusionTexture": {
        "index": 16
      },
      "pbrMetallicRoughness": {
        "baseColorTexture": {
          "index": 15
        },
        "metallicRoughnessTexture": {
          "index": 16
        }
      }
    },
    {
      "doubleSided": true,
      "name": "Material_137",
      "normalTexture": {
        "index": 20
      },
      "occlusionTexture": {
        "index": 19
      },
      "pbrMetallicRoughness": {
        "baseColorTexture": {
          "index": 18
        },
        "metallicRoughnessTexture": {
          "index": 19
        }
      }
    }
  ],
  "meshes": [
    {
      "name": "sanmonbhut1_LAW2_Material #135_0",
      "primitives": [
        {
          "attributes": {
            "NORMAL": 1,
            "POSITION": 0,
            "TANGENT": 2,
            "TEXCOORD_0": 3,
            "TEXCOORD_1": 4
          },
          "indices": 5,
          "material": 0,
          "mode": 4
        }
      ]
    },
    {
      "name": "sanmonbhut1_LAW2_Material #131_0",
      "primitives": [
        {
          "attributes": {
            "NORMAL": 7,
            "POSITION": 6,
            "TANGENT": 8,
            "TEXCOORD_0": 9,
            "TEXCOORD_1": 10
          },
          "indices": 11,
          "material": 1,
          "mode": 4
        }
      ]
    },
    {
      "name": "sanmonbhut1_LAW2_Material #134_0",
      "primitives": [
        {
          "attributes": {
            "NORMAL": 13,
            "POSITION": 12,
            "TANGENT": 14,
            "TEXCOORD_0": 15,
            "TEXCOORD_1": 16
          },
          "indices": 17,
          "material": 2,
          "mode": 4
        }
      ]
    },
    {
      "name": "sanmonbhut1_LAW2_Material #133_0",
      "primitives": [
        {
          "attributes": {
            "NORMAL": 19,
            "POSITION": 18,
            "TANGENT": 20,
            "TEXCOORD_0": 21,
            "TEXCOORD_1": 22
          },
          "indices": 23,
          "material": 3,
          "mode": 4
        }
      ]
    },
    {
      "name": "sanmonbhut1_LAW2_Material #124_0",
      "primitives": [
        {
          "attributes": {
            "NORMAL": 25,
            "POSITION": 24,
            "TANGENT": 26,
            "TEXCOORD_0": 27,
            "TEXCOORD_1": 28
          },
          "indices": 29,
          "material": 4,
          "mode": 4
        }
      ]
    },
    {
      "name": "sanmonbhut1_LAW2_Material #136_0",
      "primitives": [
        {
          "attributes": {
            "NORMAL": 31,
            "POSITION": 30,
            "TANGENT": 32,
            "TEXCOORD_0": 33,
            "TEXCOORD_1": 34
          },
          "indices": 35,
          "material": 5,
          "mode": 4
        }
      ]
    },
    {
      "name": "sanmonbhut1_LAW2_Material #137_0",
      "primitives": [
        {
          "attributes": {
            "NORMAL": 37,
            "POSITION": 36,
            "TANGENT": 38,
            "TEXCOORD_0": 39,
            "TEXCOORD_1": 40
          },
          "indices": 41,
          "material": 6,
          "mode": 4
        }
      ]
    }
  ],
  "nodes": [
    {
      "children": [
        1
      ],
      "matrix": [
        1.0,
        0.0,
        0.0,
        0.0,
        0.0,
        2.220446049250313e-16,
        -1.0,
        0.0,
        0.0,
        1.0,
        2.220446049250313e-16,
        0.0,
        0.0,
        0.0,
        0.0,
        1.0
      ],
      "name": "Sketchfab_model"
    },
    {
      "children": [
        2
      ],
      "matrix": [
        0.02539999969303608,
        0.0,
        0.0,
        0.0,
        0.0,
        0.0,
        0.02539999969303608,
        0.0,
        0.0,
        -0.02539999969303608,
        0.0,
        0.0,
        0.0,
        0.0,
        0.0,
        1.0
      ],
      "name": "55d624f622564d75bef938840a41fe7e.fbx"
    },
    {
      "children": [
        3
      ],
      "name": "RootNode"
    },
    {
      "children": [
        4,
        5,
        6,
        7,
        8,
        9,
        10
      ],
      "matrix": [
        1.0,
        0.0,
        0.0,
        0.0,
        0.0,
        2.220446049250313e-16,
        -1.0,
        0.0,
        0.0,
        1.0,
        2.220446049250313e-16,
        0.0,
        0.0,
        0.0,
        0.0,
        1.0
      ],
      "name": "sanmonbhut1_LAW2"
    },
    {
      "mesh": 0,
      "name": "sanmonbhut1_LAW2_Material #135_0"
    },
    {
      "mesh": 1,
      "name": "sanmonbhut1_LAW2_Material #131_0"
    },
    {
      "mesh": 2,
      "name": "sanmonbhut1_LAW2_Material #134_0"
    },
    {
      "mesh": 3,
      "name": "sanmonbhut1_LAW2_Material #133_0"
    },
    {
      "mesh": 4,
      "name": "sanmonbhut1_LAW2_Material #124_0"
    },
    {
      "mesh": 5,
      "name": "sanmonbhut1_LAW2_Material #136_0"
    },
    {
      "mesh": 6,
      "name": "sanmonbhut1_LAW2_Material #137_0"
    }
  ],
  "samplers": [
    {
      "magFilter": 9729,
      "minFilter": 9987,
      "wrapS": 10497,
      "wrapT": 10497
    }
  ],
  "scene": 0,
  "scenes": [
    {
      "name": "Sketchfab_Scene",
      "nodes": [
        0
      ]
    }
  ],
  "textures": [
    {
      "sampler": 0,
      "source": 0
    },
    {
      "sampler": 0,
      "source": 1
    },
    {
      "sampler": 0,
      "source": 2
    },
    {
      "sampler": 0,
      "source": 3
    },
    {
      "sampler": 0,
      "source": 4
    },
    {
      "sampler": 0,
      "source": 5
    },
    {
      "sampler": 0,
      "source": 6
    },
    {
      "sampler": 0,
      "source": 7
    },
    {
      "sampler": 0,
      "source": 8
    },
    {
      "sampler": 0,
      "source": 9
    },
    {
      "sampler": 0,
      "source": 10
    },
    {
      "sampler": 0,
      "source": 11
    },
    {
      "sampler": 0,
      "source": 12
    },
    {
      "sampler": 0,
      "source": 13
    },
    {
      "sampler": 0,
      "source": 14
    },
    {
      "sampler": 0,
      "source": 15
    },
    {
      "sampler": 0,
      "source": 16
    },
    {
      "sampler": 0,
      "source": 17
    },
    {
      "sampler": 0,
      "source": 18
    },
    {
      "sampler": 0,
      "source": 19
    },
    {
      "sampler": 0,
      "source": 20
    }
  ]
}
