{
  "accessors": [
    {
      "bufferView": 2,
      "componentType": 5126,
      "count": 6120,
      "max": [
        3.3137383460998535,
        0.6627476811408997,
        3.312927484512329
      ],
      "min": [
        -3.310495138168335,
        -0.6627476811408997,
        -3.312927484512329
      ],
      "type": "VEC3"
    },
    {
      "bufferView": 2,
      "byteOffset": 73440,
      "componentType": 5126,
      "count": 6120,
      "max": [
        1.0,
        0.9999995231628418,
        0.999755322933197
      ],
      "min": [
        -1.0,
        -0.9999995231628418,
        -0.999755322933197
      ],
      "type": "VEC3"
    },
    {
      "bufferView": 1,
      "componentType": 5126,
      "count": 6120,
      "max": [
        1.0,
        1.0
      ],
      "min": [
        -6.661338147750939e-16,
        0.0
      ],
      "type": "VEC2"
    },
    {
      "bufferView": 0,
      "componentType": 5125,
      "count": 35784,
      "type": "SCALAR"
    },
    {
      "bufferView": 2,
      "byteOffset": 146880,
      "componentType": 5126,
      "count": 238,
      "max": [
        3.352421522140503,
        0.7269479036331177,
        0.40175190567970276
      ],
      "min": [
        1.9036171436309814,
        -0.7213433384895325,
        -0.40175190567970276
      ],
      "type": "VEC3"
    },
    {
      "bufferView": 2,
      "byteOffset": 149736,
      "componentType": 5126,
      "count": 238,
      "max": [
        0.7184439897537231,
        0.7186987400054932,
        0.6953219771385193
      ],
      "min": [
        -0.7184439897537231,
        -0.7176803350448608,
        -0.6953219771385193
      ],
      "type": "VEC3"
    },
    {
      "bufferView": 1,
      "byteOffset": 48960,
      "componentType": 5126,
      "count": 238,
      "max": [
        1.0,
        0.98965984582901
      ],
      "min": [
        -5.923211574554443e-07,
        0.0
      ],
      "type": "VEC2"
    },
    {
      "bufferView": 0,
      "byteOffset": 143136,
      "componentType": 5125,
      "count": 696,
      "type": "SCALAR"
    },
    {
      "bufferView": 2,
      "byteOffset": 152592,
      "componentType": 5126,
      "count": 238,
      "max": [
        -1.894831895828247,
        0.7269479036331177,
        0.40175190567970276
      ],
      "min": [
        -3.3436362743377686,
        -0.7213433384895325,
        -0.40175190567970276
      ],
      "type": "VEC3"
    },
    {
      "bufferView": 2,
      "byteOffset": 155448,
      "componentType": 5126,
      "count": 238,
      "max": [
        0.7184439897537231,
        0.7186987996101379,
        0.6953219771385193
      ],
      "min": [
        -0.7184439897537231,
        -0.7176803350448608,
        -0.6953219771385193
      ],
      "type": "VEC3"
    },
    {
      "bufferView": 1,
      "byteOffset": 50864,
      "componentType": 5126,
      "count": 238,
      "max": [
        1.0,
        0.98965984582901
      ],
      "min": [
        -5.923211574554443e-07,
        0.0
      ],
      "type": "VEC2"
    },
    {
      "bufferView": 0,
      "byteOffset": 145920,
      "componentType": 5125,
      "count": 696,
      "type": "SCALAR"
    },
    {
      "bufferView": 2,
      "byteOffset": 158304,
      "componentType": 5126,
      "count": 238,
      "max": [
        0.40614479780197144,
        0.7269479036331177,
        3.348029136657715
      ],
      "min": [
        -0.39735907316207886,
        -0.7213433384895325,
        1.8992244005203247
      ],
      "type": "VEC3"
    },
    {
      "bufferView": 2,
      "byteOffset": 161160,
      "componentType": 5126,
      "count": 238,
      "max": [
        0.6953220963478088,
        0.7186987400054932,
        0.7184445261955261
      ],
      "min": [
        -0.6953220367431641,
        -0.7176803350448608,
        -0.7184442281723022
      ],
      "type": "VEC3"
    },
    {
      "bufferView": 1,
      "byteOffset": 52768,
      "componentType": 5126,
      "count": 238,
      "max": [
        1.0,
        0.98965984582901
      ],
      "min": [
        -5.923211574554443e-07,
        0.0
      ],
      "type": "VEC2"
    },
    {
      "bufferView": 0,
      "byteOffset": 148704,
      "componentType": 5125,
      "count": 696,
      "type": "SCALAR"
    },
    {
      "bufferView": 2,
      "byteOffset": 164016,
      "componentType": 5126,
      "count": 238,
      "max": [
        0.40614432096481323,
        0.7269479036331177,
        -1.8992244005203247
      ],
      "min": [
        -0.39735954999923706,
        -0.7213433384895325,
        -3.348029136657715
      ],
      "type": "VEC3"
    },
    {
      "bufferView": 2,
      "byteOffset": 166872,
      "componentType": 5126,
      "count": 238,
      "max": [
        0.6953219771385193,
        0.7186987400054932,
        0.7184442281723022
      ],
      "min": [
        -0.6953221559524536,
        -0.7176803946495056,
        -0.7184445261955261
      ],
      "type": "VEC3"
    },
    {
      "bufferView": 1,
      "byteOffset": 54672,
      "componentType": 5126,
      "count": 238,
      "max": [
        1.0,
        0.98965984582901
      ],
      "min": [
        -5.923211574554443e-07,
        0.0
      ],
      "type": "VEC2"
    },
    {
      "bufferView": 0,
      "byteOffset": 151488,
      "componentType": 5125,
      "count": 696,
      "type": "SCALAR"
    },
    {
      "bufferView": 2,
      "byteOffset": 169728,
      "componentType": 5126,
      "count": 64,
      "max": [
        -3.1509151458740234,
        0.037434931844472885,
        0.1881815493106842
      ],
      "min": [
        -3.5178420543670654,
        -0.037434931844472885,
        -0.1860513985157013
      ],
      "type": "VEC3"
    },
    {
      "bufferView": 2,
      "byteOffset": 170496,
      "componentType": 5126,
      "count": 64,
      "max": [
        0.9115055203437805,
        0.9950083494186401,
        0.9801725745201111
      ],
      "min": [
        -0.9996892809867859,
        -0.9950083494186401,
        -0.9690771102905273
      ],
      "type": "VEC3"
    },
    {
      "bufferView": 1,
      "byteOffset": 56576,
      "componentType": 5126,
      "count": 64,
      "max": [
        1.0,
        1.0
      ],
      "min": [
        -2.220446049250313e-16,
        0.0
      ],
      "type": "VEC2"
    },
    {
      "bufferView": 0,
      "byteOffset": 154272,
      "componentType": 5125,
      "count": 294,
      "type": "SCALAR"
    },
    {
      "bufferView": 2,
      "byteOffset": 171264,
      "componentType": 5126,
      "count": 64,
      "max": [
        3.568148136138916,
        0.037434931844472885,
        0.18717464804649353
      ],
      "min": [
        3.2031846046447754,
        -0.037434931844472885,
        -0.18717464804649353
      ],
      "type": "VEC3"
    },
    {
      "bufferView": 2,
      "byteOffset": 172032,
      "componentType": 5126,
      "count": 64,
      "max": [
        1.0,
        0.9950082898139954,
        0.9749274849891663
      ],
      "min": [
        -0.9009691476821899,
        -0.9950082898139954,
        -0.974927544593811
      ],
      "type": "VEC3"
    },
    {
      "bufferView": 1,
      "byteOffset": 57088,
      "componentType": 5126,
      "count": 64,
      "max": [
        1.0,
        1.0
      ],
      "min": [
        -2.220446049250313e-16,
        0.0
      ],
      "type": "VEC2"
    },
    {
      "bufferView": 0,
      "byteOffset": 155448,
      "componentType": 5125,
      "count": 294,
      "type": "SCALAR"
    },
    {
      "bufferView": 2,
      "byteOffset": 172800,
      "componentType": 5126,
      "count": 64,
      "max": [
        0.21330441534519196,
        0.037434931844472885,
        3.5429651737213135
      ],
      "min": [
        -0.16092851758003235,
        -0.037434931844472885,
        3.1760382652282715
      ],
      "type": "VEC3"
    },
    {
      "bufferView": 2,
      "byteOffset": 173568,
      "componentType": 5126,
      "count": 64,
      "max": [
        0.9801726341247559,
        0.9950082898139954,
        0.9996891617774963
      ],
      "min": [
        -0.9690771698951721,
        -0.9950083494186401,
        -0.9115056395530701
      ],
      "type": "VEC3"
    },
    {
      "bufferView": 1,
      "byteOffset": 57600,
      "componentType": 5126,
      "count": 64,
      "max": [
        1.0,
        1.0
      ],
      "min": [
        -2.220446049250313e-16,
        0.0
      ],
      "type": "VEC2"
    },
    {
      "bufferView": 0,
      "byteOffset": 156624,
      "componentType": 5125,
      "count": 294,
      "type": "SCALAR"
    },
    {
      "bufferView": 2,
      "byteOffset": 174336,
      "componentType": 5126,
      "count": 64,
      "max": [
        0.21229824423789978,
        0.037434931844472885,
        -3.178061008453369
      ],
      "min": [
        -0.16205105185508728,
        -0.037434931844472885,
        -3.543024778366089
      ],
      "type": "VEC3"
    },
    {
      "bufferView": 2,
      "byteOffset": 175104,
      "componentType": 5126,
      "count": 64,
      "max": [
        0.9749274253845215,
        0.9950084686279297,
        0.9009695053100586
      ],
      "min": [
        -0.9749279022216797,
        -0.9950084686279297,
        -1.0
      ],
      "type": "VEC3"
    },
    {
      "bufferView": 1,
      "byteOffset": 58112,
      "componentType": 5126,
      "count": 64,
      "max": [
        1.0,
        1.0
      ],
      "min": [
        -2.220446049250313e-16,
        0.0
      ],
      "type": "VEC2"
    },
    {
      "bufferView": 0,
      "byteOffset": 157800,
      "componentType": 5125,
      "count": 294,
      "type": "SCALAR"
    },
    {
      "bufferView": 2,
      "byteOffset": 175872,
      "componentType": 5126,
      "count": 1148,
      "max": [
        3.4892947673797607,
        0.14473262429237366,
        -0.05255300551652908
      ],
      "min": [
        0.0626051276922226,
        -0.16517838835716248,
        -3.508519411087036
      ],
      "type": "VEC3"
    },
    {
      "bufferView": 2,
      "byteOffset": 189648,
      "componentType": 5126,
      "count": 1148,
      "max": [
        0.9999535083770752,
        0.9934121966362,
        0.9997817873954773
      ],
      "min": [
        -0.9999832510948181,
        -0.993033230304718,
        -0.9997644424438477
      ],
      "type": "VEC3"
    },
    {
      "bufferView": 1,
      "byteOffset": 58624,
      "componentType": 5126,
      "count": 1148,
      "max": [
        1.0,
        1.0
      ],
      "min": [
        0.0,
        0.0
      ],
      "type": "VEC2"
    },
    {
      "bufferView": 0,
      "byteOffset": 158976,
      "componentType": 5125,
      "count": 6324,
      "type": "SCALAR"
    },
    {
      "bufferView": 2,
      "byteOffset": 203424,
      "componentType": 5126,
      "count": 1148,
      "max": [
        -0.01073808316141367,
        0.11157473921775818,
        -0.051469046622514725
      ],
      "min": [
        -3.4982340335845947,
        -0.14235347509384155,
        -3.534472703933716
      ],
      "type": "VEC3"
    },
    {
      "bufferView": 2,
      "byteOffset": 217200,
      "componentType": 5126,
      "count": 1148,
      "max": [
        0.999918520450592,
        0.9931603670120239,
        0.999921441078186
      ],
      "min": [
        -0.9999040365219116,
        -0.9928208589553833,
        -0.9999098181724548
      ],
      "type": "VEC3"
    },
    {
      "bufferView": 1,
      "byteOffset": 67808,
      "componentType": 5126,
      "count": 1148,
      "max": [
        1.0,
        1.0
      ],
      "min": [
        0.0,
        0.0
      ],
      "type": "VEC2"
    },
    {
      "bufferView": 0,
      "byteOffset": 184272,
      "componentType": 5125,
      "count": 6324,
      "type": "SCALAR"
    },
    {
      "bufferView": 2,
      "byteOffset": 230976,
      "componentType": 5126,
      "count": 1148,
      "max": [
        -0.03010847419500351,
        0.1530981957912445,
        3.4873151779174805
      ],
      "min": [
        -3.523607015609741,
        -0.16592085361480713,
        -0.0015135128051042557
      ],
      "type": "VEC3"
    },
    {
      "bufferView": 2,
      "byteOffset": 244752,
      "componentType": 5126,
      "count": 1148,
      "max": [
        0.9999108910560608,
        0.9950813055038452,
        0.999905526638031
      ],
      "min": [
        -0.9998603463172913,
        -0.9948586821556091,
        -0.9999426603317261
      ],
      "type": "VEC3"
    },
    {
      "bufferView": 1,
      "byteOffset": 76992,
      "componentType": 5126,
      "count": 1148,
      "max": [
        1.0,
        1.0
      ],
      "min": [
        0.0,
        0.0
      ],
      "type": "VEC2"
    },
    {
      "bufferView": 0,
      "byteOffset": 209568,
      "componentType": 5125,
      "count": 6324,
      "type": "SCALAR"
    },
    {
      "bufferView": 2,
      "byteOffset": 258528,
      "componentType": 5126,
      "count": 1148,
      "max": [
        3.4896328449249268,
        0.15579485893249512,
        3.464625120162964
      ],
      "min": [
        0.08500322699546814,
        -0.306108683347702,
        0.06180479750037193
      ],
      "type": "VEC3"
    },
    {
      "bufferView": 2,
      "byteOffset": 272304,
      "componentType": 5126,
      "count": 1148,
      "max": [
        0.9980486035346985,
        0.9965121150016785,
        0.9986944794654846
      ],
      "min": [
        -0.9980602860450745,
        -0.9967330098152161,
        -0.9989119172096252
      ],
      "type": "VEC3"
    },
    {
      "bufferView": 1,
      "byteOffset": 86176,
      "componentType": 5126,
      "count": 1148,
      "max": [
        1.0,
        1.0
      ],
      "min": [
        0.0,
        0.0
      ],
      "type": "VEC2"
    },
    {
      "bufferView": 0,
      "byteOffset": 234864,
      "componentType": 5125,
      "count": 6324,
      "type": "SCALAR"
    }
  ],
  "asset": {
    "extras": {
      "author": "MrBoney (https://sketchfab.com/MrBoneyy)",
      "license": "CC-BY-4.0 (http://creativecommons.org/licenses/by/4.0/)",
      "source": "https://sketchfab.com/3d-models/lifebuoy-9a64f572e09c41bda324f9d9025c8618",
      "title": "Lifebuoy"
    },
    "generator": "Sketchfab-15.12.0",
    "version": "2.0"
  },
  "bufferViews": [
    {
      "buffer": 0,
      "byteLength": 260160,
      "name": "floatBufferViews",
      "target": 34963
    },
    {
      "buffer": 0,
      "byteLength": 95360,
      "byteOffset": 260160,
      "byteStride": 8,
      "name": "floatBufferViews",
      "target": 34962
    },
    {
      "buffer": 0,
      "byteLength": 286080,
      "byteOffset": 355520,
      "byteStride": 12,
      "name": "floatBufferViews",
      "target": 34962
    }
  ],
  "buffers": [
    {
      "byteLength": 641600,
      "uri": "scene.bin"
    }
  ],
  "extensionsUsed": [
    "KHR_materials_specular"
  ],
  "materials": [
    {
      "doubleSided": true,
      "extensions": {
        "KHR_materials_specular": {
          "specularColorFactor": [
            1.0,
            1.0,
            1.0
          ],
          "specularFactor": 1.0
        }
      },
      "name": "Boia",
      "pbrMetallicRoughness": {
        "baseColorFactor": [
          0.8,
          0.00487517,
          0.00378056,
          1.0
        ],
        "metallicFactor": 0.425,
        "roughnessFactor": 0.308333
      }
    },
    {
      "doubleSided": true,
      "extensions": {
        "KHR_materials_specular": {
          "specularColorFactor": [
            1.0,
            1.0,
            1.0
          ],
          "specularFactor": 1.0
        }
      },
      "name": "Plastico",
      "pbrMetallicRoughness": {
        "baseColorFactor": [
          0.626661,
          0.558728,
          0.507967,
          1.0
        ],
        "metallicFactor": 0.0,
        "roughnessFactor": 0.5
      }
    }
  ],
  "meshes": [
    {
      "name": "Object_0",
      "primitives": [
        {
          "attributes": {
            "NORMAL": 1,
            "POSITION": 0,
            "TEXCOORD_0": 2
          },
          "indices": 3,
          "material": 0,
          "mode": 4
        }
      ]
    },
    {
      "name": "Object_1",
      "primitives": [
        {
          "attributes": {
            "NORMAL": 5,
            "POSITION": 4,
            "TEXCOORD_0": 6
          },
          "indices": 7,
          "material": 1,
          "mode": 4
        }
      ]
    },
    {
      "name": "Object_2",
      "primitives": [
        {
          "attributes": {
            "NORMAL": 9,
            "POSITION": 8,
            "TEXCOORD_0": 10
          },
          "indices": 11,
          "material": 1,
          "mode": 4
        }
      ]
    },
    {
      "name": "Object_3",
      "primitives": [
        {
          "attributes": {
            "NORMAL": 13,
            "POSITION": 12,
            "TEXCOORD_0": 14
          },
          "indices": 15,
          "material": 1,
          "mode": 4
        }
      ]
    },
    {
      "name": "Object_4",
      "primitives": [
        {
          "attributes": {
            "NORMAL": 17,
            "POSITION": 16,
            "TEXCOORD_0": 18
          },
          "indices": 19,
          "material": 1,
          "mode": 4
        }
      ]
    },
    {
      "name": "Object_5",
      "primitives": [
        {
          "attributes": {
            "NORMAL": 21,
            "POSITION": 20,
            "TEXCOORD_0": 22
          },
          "indices": 23,
          "material": 1,
          "mode": 4
        }
      ]
    },
    {
      "name": "Object_6",
      "primitives": [
        {
          "attributes": {
            "NORMAL": 25,
            "POSITION": 24,
            "TEXCOORD_0": 26
          },
          "indices": 27,
          "material": 1,
          "mode": 4
        }
      ]
    },
    {
      "name": "Object_7",
      "primitives": [
        {
          "attributes": {
            "NORMAL": 29,
            "POSITION": 28,
            "TEXCOORD_0": 30
          },
          "indices": 31,
          "material": 1,
          "mode": 4
        }
      ]
    },
    {
      "name": "Object_8",
      "primitives": [
        {
          "attributes": {
            "NORMAL": 33,
            "POSITION": 32,
            "TEXCOORD_0": 34
          },
          "indices": 35,
          "material": 1,
          "mode": 4
        }
      ]
    },
    {
      "name": "Object_9",
      "primitives": [
        {
          "attributes": {
            "NORMAL": 37,
            "POSITION": 36,
            "TEXCOORD_0": 38
          },
          "indices": 39,
          "material": 1,
          "mode": 4
        }
      ]
    },
    {
      "name": "Object_10",
      "primitives": [
        {
          "attributes": {
            "NORMAL": 41,
            "POSITION": 40,
            "TEXCOORD_0": 42
          },
          "indices": 43,
          "material": 1,
          "mode": 4
        }
      ]
    },
    {
      "name": "Object_11",
      "primitives": [
        {
          "attributes": {
            "NORMAL": 45,
            "POSITION": 44,
            "TEXCOORD_0": 46
          },
          "indices": 47,
          "material": 1,
          "mode": 4
        }
      ]
    },
    {
      "name": "Object_12",
      "primitives": [
        {
          "attributes": {
            "NORMAL": 49,
            "POSITION": 48,
            "TEXCOORD_0": 50
          },
          "indices": 51,
          "material": 1,
          "mode": 4
        }
      ]
    }
  ],
  "nodes": [
    {
      "children": [
        1
      ],
      "matrix": [
        1.0,
        0.0,
        0.0,
        0.0,
        0.0,
        2.220446049250313e-16,
        -1.0,
        0.0,
        0.0,
        1.0,
        2.220446049250313e-16,
        0.0,
        0.0,
        0.0,
        0.0,
        1.0
      ],
      "name": "Sketchfab_model"
    },
    {
      "children": [
        2
      ],
      "name": "root"
    },
    {
      "children": [
        3,
        5,
        7,
        9,
        11,
        13,
        15,
        17,
        19,
        21,
        23,
        25,
        27
      ],
      "matrix": [
        1.0,
        0.0,
        0.0,
        0.0,
        0.0,
        2.220446049250313e-16,
        1.0,
        0.0,
        0.0,
        -1.0,
        2.220446049250313e-16,
        0.0,
        0.0,
        0.0,
        0.0,
        1.0
      ],
      "name": "GLTF_SceneRootNode"
    },
    {
      "children": [
        4
      ],
      "name": "Torus_0"
    },
    {
      "mesh": 0,
      "name": "Object_4"
    },
    {
      "children": [
        6
      ],
      "name": "Cylinder_1"
    },
    {
      "mesh": 1,
      "name": "Object_6"
    },
    {
      "children": [
        8
      ],
      "name": "Cylinder.002_2"
    },
    {
      "mesh": 2,
      "name": "Object_8"
    },
    {
      "children": [
        10
      ],
      "name": "Cylinder.003_3"
    },
    {
      "mesh": 3,
      "name": "Object_10"
    },
    {
      "children": [
        12
      ],
      "name": "Cylinder.004_4"
    },
    {
      "mesh": 4,
      "name": "Object_12"
    },
    {
      "children": [
        14
      ],
      "name": "Torus.002_5"
    },
    {
      "mesh": 5,
      "name": "Object_14"
    },
    {
      "children": [
        16
      ],
      "name": "Torus.001_6"
    },
    {
      "mesh": 6,
      "name": "Object_16"
    },
    {
      "children": [
        18
      ],
      "name": "Torus.003_7"
    },
    {
      "mesh": 7,
      "name": "Object_18"
    },
    {
      "children": [
        20
      ],
      "name": "Torus.004_8"
    },
    {
      "mesh": 8,
      "name": "Object_20"
    },
    {
      "children": [
        22
      ],
      "name": "NurbsPath_9"
    },
    {
      "mesh": 9,
      "name": "Object_22"
    },
    {
      "children": [
        24
      ],
      "name": "NurbsPath.001_10"
    },
    {
      "mesh": 10,
      "name": "Object_24"
    },
    {
      "children": [
        26
      ],
      "name": "NurbsPath.002_11"
    },
    {
      "mesh": 11,
      "name": "Object_26"
    },
    {
      "children": [
        28
      ],
      "name": "NurbsPath.003_12"
    },
    {
      "mesh": 12,
      "name": "Object_28"
    }
  ],
  "scene": 0,
  "scenes": [
    {
      "name": "Sketchfab_Scene",
      "nodes": [
        0
      ]
    }
  ]
}
